<mxfile host="Electron" modified="2024-06-28T15:52:34.048Z" agent="Mozilla/5.0 (Macintosh; Intel Mac OS X 10_15_7) AppleWebKit/537.36 (KHTML, like Gecko) draw.io/24.6.4 Chrome/124.0.6367.207 Electron/30.0.6 Safari/537.36" etag="KuZtbmIn9IqAyy6GxShJ" version="24.6.4" type="device">
  <diagram name="Page-1" id="FpsxUlfm9SSa0UdNBrvg">
    <mxGraphModel dx="914" dy="824" grid="1" gridSize="10" guides="1" tooltips="1" connect="1" arrows="1" fold="1" page="1" pageScale="1" pageWidth="827" pageHeight="1169" math="0" shadow="0">
      <root>
        <mxCell id="0" />
        <mxCell id="1" parent="0" />
        <mxCell id="4pm-2qYC4wzhBg7R6dqF-63" value="&lt;font style=&quot;font-size: 20px;&quot;&gt;&lt;b&gt;KMS blockchain&lt;/b&gt;&lt;/font&gt;" style="rounded=1;whiteSpace=wrap;html=1;fontColor=none;noLabel=1;labelBackgroundColor=none;" parent="1" vertex="1">
          <mxGeometry x="650" y="12" width="290" height="190" as="geometry" />
        </mxCell>
        <mxCell id="4pm-2qYC4wzhBg7R6dqF-51" value="&lt;font style=&quot;font-size: 20px;&quot;&gt;&lt;b&gt;KMS blockchain&lt;/b&gt;&lt;/font&gt;" style="rounded=1;whiteSpace=wrap;html=1;fontColor=none;noLabel=1;labelBackgroundColor=none;" parent="1" vertex="1">
          <mxGeometry x="251" y="43.5" width="199" height="150" as="geometry" />
        </mxCell>
        <mxCell id="4pm-2qYC4wzhBg7R6dqF-40" value="&lt;font style=&quot;font-size: 20px;&quot;&gt;&lt;b&gt;KMS blockchain&lt;/b&gt;&lt;/font&gt;" style="rounded=1;whiteSpace=wrap;html=1;fontColor=none;noLabel=1;labelBackgroundColor=none;" parent="1" vertex="1">
          <mxGeometry x="480" y="38.5" width="140" height="160" as="geometry" />
        </mxCell>
        <mxCell id="4pm-2qYC4wzhBg7R6dqF-1" value="S3" style="shape=cylinder3;whiteSpace=wrap;html=1;boundedLbl=1;backgroundOutline=1;size=15;" parent="1" vertex="1">
          <mxGeometry x="886.75" y="72" width="40" height="60" as="geometry" />
        </mxCell>
        <mxCell id="4pm-2qYC4wzhBg7R6dqF-4" value="Engine" style="whiteSpace=wrap;html=1;aspect=fixed;" parent="1" vertex="1">
          <mxGeometry x="790" y="82" width="60" height="60" as="geometry" />
        </mxCell>
        <mxCell id="4pm-2qYC4wzhBg7R6dqF-9" value="Nitro" style="sketch=0;pointerEvents=1;shadow=0;dashed=0;html=1;strokeColor=none;fillColor=#505050;labelPosition=center;verticalLabelPosition=bottom;verticalAlign=top;outlineConnect=0;align=center;shape=mxgraph.office.security.lock_protected;" parent="1" vertex="1">
          <mxGeometry x="840" y="132" width="28" height="37" as="geometry" />
        </mxCell>
        <mxCell id="4pm-2qYC4wzhBg7R6dqF-10" value="" style="endArrow=classic;startArrow=classic;html=1;rounded=0;exitX=1;exitY=0.5;exitDx=0;exitDy=0;entryX=0;entryY=0;entryDx=0;entryDy=37.5;entryPerimeter=0;" parent="1" source="4pm-2qYC4wzhBg7R6dqF-4" target="4pm-2qYC4wzhBg7R6dqF-1" edge="1">
          <mxGeometry width="50" height="50" relative="1" as="geometry">
            <mxPoint x="886" y="102" as="sourcePoint" />
            <mxPoint x="936" y="52" as="targetPoint" />
          </mxGeometry>
        </mxCell>
        <mxCell id="4pm-2qYC4wzhBg7R6dqF-21" value="Core Service" style="whiteSpace=wrap;html=1;aspect=fixed;" parent="1" vertex="1">
          <mxGeometry x="730" y="82" width="60" height="60" as="geometry" />
        </mxCell>
        <mxCell id="4pm-2qYC4wzhBg7R6dqF-28" value="Core Connector" style="rounded=1;whiteSpace=wrap;html=1;" parent="1" vertex="1">
          <mxGeometry x="670" y="83.5" width="60" height="60" as="geometry" />
        </mxCell>
        <mxCell id="4pm-2qYC4wzhBg7R6dqF-34" value="Validator" style="whiteSpace=wrap;html=1;aspect=fixed;" parent="1" vertex="1">
          <mxGeometry x="520" y="103.5" width="63.5" height="63.5" as="geometry" />
        </mxCell>
        <mxCell id="JiTltuqQd8X32mj_rh5E-2" value="" style="edgeStyle=orthogonalEdgeStyle;rounded=0;orthogonalLoop=1;jettySize=auto;html=1;" parent="1" edge="1">
          <mxGeometry relative="1" as="geometry">
            <mxPoint x="570" y="185" as="targetPoint" />
          </mxGeometry>
        </mxCell>
        <mxCell id="4pm-2qYC4wzhBg7R6dqF-41" value="&lt;font style=&quot;font-size: 20px;&quot;&gt;&lt;b&gt;KMS&amp;nbsp;&lt;/b&gt;&lt;/font&gt;&lt;div&gt;&lt;font style=&quot;font-size: 20px;&quot;&gt;&lt;b&gt;Blockchain&lt;/b&gt;&lt;/font&gt;&lt;/div&gt;" style="text;html=1;align=center;verticalAlign=middle;resizable=0;points=[];autosize=1;strokeColor=none;fillColor=none;" parent="1" vertex="1">
          <mxGeometry x="490" y="38.5" width="130" height="60" as="geometry" />
        </mxCell>
        <mxCell id="4pm-2qYC4wzhBg7R6dqF-42" value="" style="endArrow=classic;startArrow=classic;html=1;rounded=0;entryX=0.002;entryY=0.558;entryDx=0;entryDy=0;exitX=1;exitY=0.5;exitDx=0;exitDy=0;entryPerimeter=0;" parent="1" source="4pm-2qYC4wzhBg7R6dqF-40" target="4pm-2qYC4wzhBg7R6dqF-63" edge="1">
          <mxGeometry width="50" height="50" relative="1" as="geometry">
            <mxPoint x="730" y="210" as="sourcePoint" />
            <mxPoint x="866.5" y="243.5" as="targetPoint" />
          </mxGeometry>
        </mxCell>
        <mxCell id="4pm-2qYC4wzhBg7R6dqF-46" value="Gateway" style="whiteSpace=wrap;html=1;aspect=fixed;" parent="1" vertex="1">
          <mxGeometry x="290.5" y="100.5" width="58" height="58" as="geometry" />
        </mxCell>
        <mxCell id="4pm-2qYC4wzhBg7R6dqF-47" value="Gateway Connector" style="rounded=1;whiteSpace=wrap;html=1;" parent="1" vertex="1">
          <mxGeometry x="350.5" y="98.5" width="60" height="60" as="geometry" />
        </mxCell>
        <mxCell id="4pm-2qYC4wzhBg7R6dqF-48" value="" style="endArrow=classic;startArrow=classic;html=1;rounded=0;exitX=1;exitY=0.5;exitDx=0;exitDy=0;" parent="1" source="4pm-2qYC4wzhBg7R6dqF-51" target="4pm-2qYC4wzhBg7R6dqF-40" edge="1">
          <mxGeometry width="50" height="50" relative="1" as="geometry">
            <mxPoint x="480" y="120" as="sourcePoint" />
            <mxPoint x="780" y="130" as="targetPoint" />
          </mxGeometry>
        </mxCell>
        <mxCell id="4pm-2qYC4wzhBg7R6dqF-52" value="&lt;font style=&quot;font-size: 20px;&quot;&gt;&lt;b&gt;Gateway Service&lt;/b&gt;&lt;/font&gt;" style="text;html=1;align=center;verticalAlign=middle;resizable=0;points=[];autosize=1;strokeColor=none;fillColor=none;" parent="1" vertex="1">
          <mxGeometry x="260.5" y="51.75" width="180" height="40" as="geometry" />
        </mxCell>
        <mxCell id="4pm-2qYC4wzhBg7R6dqF-53" value="&lt;font style=&quot;font-size: 20px;&quot;&gt;&lt;b&gt;KMS blockchain&lt;/b&gt;&lt;/font&gt;" style="rounded=1;whiteSpace=wrap;html=1;fontColor=none;noLabel=1;labelBackgroundColor=none;" parent="1" vertex="1">
          <mxGeometry width="223.5" height="240" as="geometry" />
        </mxCell>
        <mxCell id="4pm-2qYC4wzhBg7R6dqF-54" value="Validator" style="whiteSpace=wrap;html=1;aspect=fixed;" parent="1" vertex="1">
          <mxGeometry x="80" y="40" width="63.5" height="63.5" as="geometry" />
        </mxCell>
        <mxCell id="4pm-2qYC4wzhBg7R6dqF-55" value="Validator" style="whiteSpace=wrap;html=1;aspect=fixed;" parent="1" vertex="1">
          <mxGeometry x="16.5" y="153.25" width="63.5" height="63.5" as="geometry" />
        </mxCell>
        <mxCell id="4pm-2qYC4wzhBg7R6dqF-56" value="Validator" style="whiteSpace=wrap;html=1;aspect=fixed;" parent="1" vertex="1">
          <mxGeometry x="150" y="153.25" width="63.5" height="63.5" as="geometry" />
        </mxCell>
        <mxCell id="4pm-2qYC4wzhBg7R6dqF-57" value="" style="endArrow=classic;startArrow=classic;html=1;rounded=0;entryX=0;entryY=1;entryDx=0;entryDy=0;exitX=0.5;exitY=0;exitDx=0;exitDy=0;" parent="1" source="4pm-2qYC4wzhBg7R6dqF-55" target="4pm-2qYC4wzhBg7R6dqF-54" edge="1">
          <mxGeometry width="50" height="50" relative="1" as="geometry">
            <mxPoint x="310" y="170" as="sourcePoint" />
            <mxPoint x="360" y="120" as="targetPoint" />
          </mxGeometry>
        </mxCell>
        <mxCell id="4pm-2qYC4wzhBg7R6dqF-58" value="" style="endArrow=classic;startArrow=classic;html=1;rounded=0;entryX=1;entryY=1;entryDx=0;entryDy=0;exitX=0.5;exitY=0;exitDx=0;exitDy=0;" parent="1" source="4pm-2qYC4wzhBg7R6dqF-56" target="4pm-2qYC4wzhBg7R6dqF-54" edge="1">
          <mxGeometry width="50" height="50" relative="1" as="geometry">
            <mxPoint x="58" y="163" as="sourcePoint" />
            <mxPoint x="90" y="114" as="targetPoint" />
          </mxGeometry>
        </mxCell>
        <mxCell id="4pm-2qYC4wzhBg7R6dqF-59" value="" style="endArrow=classic;startArrow=classic;html=1;rounded=0;entryX=0;entryY=0.5;entryDx=0;entryDy=0;exitX=1;exitY=0.5;exitDx=0;exitDy=0;" parent="1" source="4pm-2qYC4wzhBg7R6dqF-55" target="4pm-2qYC4wzhBg7R6dqF-56" edge="1">
          <mxGeometry width="50" height="50" relative="1" as="geometry">
            <mxPoint x="68" y="173" as="sourcePoint" />
            <mxPoint x="100" y="124" as="targetPoint" />
          </mxGeometry>
        </mxCell>
        <mxCell id="4pm-2qYC4wzhBg7R6dqF-60" value="&lt;font style=&quot;font-size: 20px;&quot;&gt;&lt;b&gt;fhEVM Blockchain&lt;/b&gt;&lt;/font&gt;" style="text;html=1;align=center;verticalAlign=middle;resizable=0;points=[];autosize=1;strokeColor=none;fillColor=none;" parent="1" vertex="1">
          <mxGeometry x="6.5" width="200" height="40" as="geometry" />
        </mxCell>
        <mxCell id="4pm-2qYC4wzhBg7R6dqF-61" value="" style="endArrow=classic;startArrow=classic;html=1;rounded=0;exitX=1;exitY=0.5;exitDx=0;exitDy=0;entryX=0;entryY=0.5;entryDx=0;entryDy=0;" parent="1" source="4pm-2qYC4wzhBg7R6dqF-53" target="4pm-2qYC4wzhBg7R6dqF-51" edge="1">
          <mxGeometry width="50" height="50" relative="1" as="geometry">
            <mxPoint x="480" y="117" as="sourcePoint" />
            <mxPoint x="510" y="120" as="targetPoint" />
          </mxGeometry>
        </mxCell>
        <mxCell id="4pm-2qYC4wzhBg7R6dqF-64" value="&lt;span style=&quot;font-size: 20px;&quot;&gt;&lt;b&gt;Central Core&lt;/b&gt;&lt;/span&gt;" style="text;html=1;align=center;verticalAlign=middle;resizable=0;points=[];autosize=1;strokeColor=none;fillColor=none;" parent="1" vertex="1">
          <mxGeometry x="725" y="22" width="140" height="40" as="geometry" />
        </mxCell>
        <mxCell id="uqOfu4qLd0jLRNO7fjob-1" value="&lt;font style=&quot;font-size: 20px;&quot;&gt;&lt;b&gt;KMS blockchain&lt;/b&gt;&lt;/font&gt;" style="rounded=1;whiteSpace=wrap;html=1;fontColor=none;noLabel=1;labelBackgroundColor=none;" parent="1" vertex="1">
          <mxGeometry x="480" y="220" width="140" height="161.5" as="geometry" />
        </mxCell>
        <mxCell id="uqOfu4qLd0jLRNO7fjob-2" value="&lt;font style=&quot;font-size: 20px;&quot;&gt;&lt;b&gt;KV-Store&lt;/b&gt;&lt;/font&gt;" style="text;html=1;align=center;verticalAlign=middle;resizable=0;points=[];autosize=1;strokeColor=none;fillColor=none;" parent="1" vertex="1">
          <mxGeometry x="496.75" y="230" width="110" height="40" as="geometry" />
        </mxCell>
        <mxCell id="uqOfu4qLd0jLRNO7fjob-3" value="KV-Store" style="whiteSpace=wrap;html=1;aspect=fixed;" parent="1" vertex="1">
          <mxGeometry x="516" y="280" width="58" height="58" as="geometry" />
        </mxCell>
        <mxCell id="uqOfu4qLd0jLRNO7fjob-4" value="" style="endArrow=classic;startArrow=none;html=1;rounded=0;entryX=0;entryY=0.5;entryDx=0;entryDy=0;exitX=0.5;exitY=1;exitDx=0;exitDy=0;startFill=0;" parent="1" source="4pm-2qYC4wzhBg7R6dqF-47" target="uqOfu4qLd0jLRNO7fjob-1" edge="1">
          <mxGeometry width="50" height="50" relative="1" as="geometry">
            <mxPoint x="390" y="270" as="sourcePoint" />
            <mxPoint x="490" y="129" as="targetPoint" />
          </mxGeometry>
        </mxCell>
        <mxCell id="uqOfu4qLd0jLRNO7fjob-5" value="" style="endArrow=none;startArrow=classic;html=1;rounded=0;entryX=1.014;entryY=0.545;entryDx=0;entryDy=0;exitX=0.5;exitY=1;exitDx=0;exitDy=0;entryPerimeter=0;endFill=0;" parent="1" source="4pm-2qYC4wzhBg7R6dqF-28" target="uqOfu4qLd0jLRNO7fjob-1" edge="1">
          <mxGeometry width="50" height="50" relative="1" as="geometry">
            <mxPoint x="391" y="169" as="sourcePoint" />
            <mxPoint x="490" y="311" as="targetPoint" />
          </mxGeometry>
        </mxCell>
      </root>
    </mxGraphModel>
  </diagram>
</mxfile>
